# File created by Blade
# Date/Time:  Thu Jan 22 16:31:11 2015
# Frame Rate: 120.000 fps
#------------------------------------------------------
:FULLY-SPECIFIED
:DEGREES
758
root 26.599870 17.796237 -0.512491 3.696128 28.930769 -21.142023
RightUpLeg 15.388232 -6.893071 -35.844657
RightLeg 2.245824 -0.000000 -0.000000
RightFoot -20.819483 -16.743753 41.348428
RightToeBase 18.343603 -0.000000 -0.000000
LeftUpLeg -106.232280 26.468588 3.539822
LeftLeg 133.498207 -0.000000 -0.000000
LeftFoot -34.070210 2.839797 -20.575951
LeftToeBase -14.112109 -0.000000 0.000000
Spine 33.813129 0.599648 -49.883053
RightShoulder -14.580166 4.824862 -44.299568
RightArm 36.508979 70.077163 -10.492434
RightForeArm -2.923863 -0.000000 16.815035
RightHand 14.659814 -0.000000 -44.850805
RightHandThumb1 -24.326973 -0.000000 -32.862282
LeftShoulder -17.201206 42.833508 12.495953
LeftArm 91.534604 -38.686459 -129.878577
LeftForeArm -8.031693 -0.000000 12.391795
LeftHand -28.459498 -0.000000 97.602173
LeftHandThumb1 -26.253704 0.000000 33.147579
Head 7.483189 4.434876 -46.488990
759
root 26.598846 17.788483 -0.516873 3.682942 28.956216 -21.143530
RightUpLeg 15.402958 -6.887939 -35.855290
RightLeg 2.271293 -0.000000 -0.000000
RightFoot -20.856447 -16.709595 41.406493
RightToeBase 18.373858 -0.000000 -0.000000
LeftUpLeg -106.255669 26.440652 3.512528
LeftLeg 133.508227 -0.000000 -0.000000
LeftFoot -34.106218 2.880504 -20.528142
LeftToeBase -14.029406 -0.000000 0.000000
Spine 33.839688 0.592623 -49.840090
RightShoulder -14.582747 4.839848 -44.310704
RightArm 36.560471 70.050560 -10.474802
RightForeArm -2.884523 -0.000000 16.835830
RightHand 14.580777 -0.000000 -44.811462
RightHandThumb1 -24.326973 -0.000000 -32.862282
LeftShoulder -17.207544 42.837704 12.461963
LeftArm 91.579128 -38.638913 -129.981215
LeftForeArm -7.907010 -0.000000 12.471126
LeftHand -28.536665 -0.000000 97.614344
LeftHandThumb1 -26.253704 0.000000 33.147579
Head 7.461520 4.474593 -46.497252
760
root 26.598316 17.780818 -0.521860 3.664477 28.978017 -21.149168
RightUpLeg 15.421563 -6.875967 -35.862574
RightLeg 2.287466 -0.000000 -0.000000
RightFoot -20.867261 -16.696020 41.428866
RightToeBase 18.355006 -0.000000 -0.000000
LeftUpLeg -106.275372 26.408688 3.483146
LeftLeg 133.516463 -0.000000 -0.000000
LeftFoot -34.150919 2.950748 -20.471566
LeftToeBase -14.024078 -0.000000 0.000000
Spine 33.865672 0.586101 -49.797435
RightShoulder -14.578498 4.837774 -44.317142
RightArm 36.616397 70.040755 -10.460051
RightForeArm -2.897780 -0.000000 16.807526
RightHand 14.627435 -0.000000 -44.814955
RightHandThumb1 -24.326973 -0.000000 -32.862282
LeftShoulder -17.215968 42.851505 12.430106
LeftArm 91.623320 -38.586847 -130.073289
LeftForeArm -7.822077 -0.000000 12.526737
LeftHand -28.543214 -0.000000 97.637588
LeftHandThumb1 -26.253704 0.000000 33.147579
Head 7.460473 4.493116 -46.499702
761
root 26.597989 17.771821 -0.525835 3.630455 28.991296 -21.154460
RightUpLeg 15.449934 -6.880360 -35.881623
RightLeg 2.302500 -0.000000 -0.000000
RightFoot -20.874649 -16.658396 41.443689
RightToeBase 18.362694 -0.000000 -0.000000
LeftUpLeg -106.278767 26.395905 3.455250
LeftLeg 133.531782 -0.000000 -0.000000
LeftFoot -34.202686 3.018455 -20.402375
LeftToeBase -14.014016 -0.000000 0.000000
Spine 33.903822 0.599509 -49.757522
RightShoulder -14.608824 4.811580 -44.297404
RightArm 36.919685 70.160125 -10.100962
RightForeArm -3.298703 0.000000 17.019896
RightHand 14.199479 -0.000000 -44.672454
RightHandThumb1 -24.326973 -0.000000 -32.862282
LeftShoulder -17.244091 42.869096 12.400277
LeftArm 91.647263 -38.521374 -130.118656
LeftForeArm -7.793795 -0.000000 12.553201
LeftHand -28.535502 -0.000000 97.683633
LeftHandThumb1 -26.253704 0.000000 33.147579
Head 7.434347 4.494389 -46.469794
762
root 26.598105 17.765929 -0.531822 3.613833 28.980625 -21.157936
RightUpLeg 15.445155 -6.837855 -35.884047
RightLeg 2.311855 -0.000000 -0.000000
RightFoot -20.902789 -16.661789 41.464269
RightToeBase 18.367561 -0.000000 -0.000000
LeftUpLeg -106.289119 26.397160 3.417778
LeftLeg 133.536500 -0.000000 -0.000000
LeftFoot -34.264139 3.109320 -20.327356
LeftToeBase -13.957955 -0.000000 0.000000
Spine 33.911528 0.605321 -49.729748
RightShoulder -14.602258 4.807424 -44.299169
RightArm 36.962974 70.171135 -10.074530
RightForeArm -3.418469 -0.000000 17.038025
RightHand 14.128161 -0.000000 -44.647738
RightHandThumb1 -24.326973 -0.000000 -32.862282
LeftShoulder -17.262670 42.860544 12.376892
LeftArm 91.672903 -38.485292 -130.163938
LeftForeArm -7.734956 -0.000000 12.543579
LeftHand -28.539587 -0.000000 97.699789
LeftHandThumb1 -26.253704 0.000000 33.147579
Head 7.391788 4.545068 -46.464419
763
root 26.599519 17.759005 -0.534855 3.561392 28.979107 -21.172492
RightUpLeg 15.477666 -6.807129 -35.887323
RightLeg 2.321662 -0.000000 -0.000000
RightFoot -20.911780 -16.644785 41.467167
RightToeBase 18.357724 -0.000000 -0.000000
LeftUpLeg -106.269910 26.397768 3.404277
LeftLeg 133.552925 -0.000000 -0.000000
LeftFoot -34.312186 3.166906 -20.276249
LeftToeBase -13.928674 -0.000000 0.000000
Spine 33.970186 0.630275 -49.681036
RightShoulder -14.641452 4.842213 -44.337697
RightArm 37.059564 70.150616 -9.978906
RightForeArm -3.387702 -0.000000 17.049897
RightHand 14.162398 0.000000 -44.625935
RightHandThumb1 -24.326973 -0.000000 -32.862282
LeftShoulder -17.340908 42.814023 12.299183
LeftArm 91.696755 -38.420174 -130.160245
LeftForeArm -7.685252 -0.000000 12.506285
LeftHand -28.553740 0.000000 97.712186
LeftHandThumb1 -26.253704 0.000000 33.147579
Head 7.352112 4.274354 -46.627096
